<svg width="20" height="22" viewBox="0 0 20 22" fill="none" xmlns="http://www.w3.org/2000/svg">
<path d="M18.4256 1.65419C17.3396 0.434443 15.602 0.434443 14.5161 1.65419L10.679 5.96397L9.73778 4.90685C9.44819 4.58159 9.0138 4.58159 8.72421 4.90685C8.43461 5.23212 8.43461 5.72002 8.72421 6.04528L9.66538 7.1024L1.99118 15.722C1.55679 16.2099 1.26719 16.8604 1.1948 17.5922C0.760407 17.9988 0.543213 18.6494 0.543213 19.2999C0.543213 20.6823 1.48439 21.7394 2.71516 21.7394C3.29434 21.7394 3.87353 21.4954 4.30792 21.0075C4.8871 20.9262 5.46629 20.6009 5.90068 20.113L13.5749 11.4935L14.5161 12.5506C14.6609 12.7132 14.8781 12.7946 15.0228 12.7946C15.1676 12.7946 15.3848 12.7132 15.5296 12.5506C15.8192 12.2253 15.8192 11.7374 15.5296 11.4122L14.5885 10.3551L18.4256 6.04528C19.5115 4.82554 19.5115 2.87394 18.4256 1.65419ZM4.8871 18.9746C4.59751 19.2999 4.30792 19.4625 3.94593 19.3812C3.65633 19.3812 3.43914 19.5438 3.29434 19.7878C3.22195 19.9504 2.93235 20.113 2.71516 20.113C2.28077 20.113 1.99118 19.7878 1.99118 19.2999C1.99118 19.0559 2.13597 18.7307 2.35317 18.6494C2.57036 18.4867 2.71516 18.2428 2.71516 17.9175C2.71516 17.5109 2.85995 17.1043 3.07715 16.8604L10.679 8.24083L12.5613 10.3551L4.8871 18.9746Z" fill="black"/>
</svg>
